<svg xmlns="http://www.w3.org/2000/svg" xmlns:xlink="http://www.w3.org/1999/xlink" width="1080" zoomAndPan="magnify" viewBox="0 0 810 809.999993" height="1080" preserveAspectRatio="xMidYMid meet" version="1.0"><defs><clipPath id="d0053657f5"><path d="M 302 230 L 587 230 L 587 489 L 302 489 Z M 302 230 " clip-rule="nonzero"/></clipPath><clipPath id="bf26457862"><path d="M 104.761719 61.796875 L 737.085938 -49.246094 L 850.074219 594.160156 L 217.75 705.199219 Z M 104.761719 61.796875 " clip-rule="nonzero"/></clipPath><clipPath id="771df4bbde"><path d="M 737.238281 -49.269531 L 104.914062 61.769531 L 217.898438 705.175781 L 850.222656 594.132812 Z M 737.238281 -49.269531 " clip-rule="nonzero"/></clipPath><clipPath id="4872754413"><path d="M 123 165 L 289 165 L 289 290 L 123 290 Z M 123 165 " clip-rule="nonzero"/></clipPath><clipPath id="fd9129b974"><path d="M 104.761719 61.796875 L 737.085938 -49.246094 L 850.074219 594.160156 L 217.75 705.199219 Z M 104.761719 61.796875 " clip-rule="nonzero"/></clipPath><clipPath id="91bbd9bac0"><path d="M 737.238281 -49.269531 L 104.914062 61.769531 L 217.898438 705.175781 L 850.222656 594.132812 Z M 737.238281 -49.269531 " clip-rule="nonzero"/></clipPath><clipPath id="e21f0b72b9"><path d="M 264.660156 140.519531 L 122.585938 165.46875 L 148.492188 312.992188 L 290.566406 288.042969 Z M 264.660156 140.519531 " clip-rule="nonzero"/></clipPath><clipPath id="c4cd8c8803"><path d="M 264.660156 140.519531 L 123.097656 165.378906 L 149.003906 312.902344 L 290.566406 288.042969 Z M 264.660156 140.519531 " clip-rule="nonzero"/></clipPath><clipPath id="bb08dc5703"><path d="M 569 489 L 736 489 L 736 615 L 569 615 Z M 569 489 " clip-rule="nonzero"/></clipPath><clipPath id="6ff025ebf5"><path d="M 104.761719 61.796875 L 737.085938 -49.246094 L 850.074219 594.160156 L 217.75 705.199219 Z M 104.761719 61.796875 " clip-rule="nonzero"/></clipPath><clipPath id="abbc4efdb2"><path d="M 737.238281 -49.269531 L 104.914062 61.769531 L 217.898438 705.175781 L 850.222656 594.132812 Z M 737.238281 -49.269531 " clip-rule="nonzero"/></clipPath><clipPath id="a9bb7e8ea6"><path d="M 709.707031 466.949219 L 567.628906 491.898438 L 593.535156 639.421875 L 735.613281 614.472656 Z M 709.707031 466.949219 " clip-rule="nonzero"/></clipPath><clipPath id="6b34b00a6c"><path d="M 709.707031 466.949219 L 567.628906 491.898438 L 593.503906 639.242188 L 735.582031 614.292969 Z M 709.707031 466.949219 " clip-rule="nonzero"/></clipPath><clipPath id="dc65f21e19"><path d="M 604 332 L 805 332 L 805 374 L 604 374 Z M 604 332 " clip-rule="nonzero"/></clipPath><clipPath id="61f3eb5bbb"><path d="M 104.761719 61.796875 L 737.085938 -49.246094 L 850.074219 594.160156 L 217.75 705.199219 Z M 104.761719 61.796875 " clip-rule="nonzero"/></clipPath><clipPath id="e82c6061e1"><path d="M 737.238281 -49.269531 L 104.914062 61.769531 L 217.898438 705.175781 L 850.222656 594.132812 Z M 737.238281 -49.269531 " clip-rule="nonzero"/></clipPath><clipPath id="d34a1e4af2"><path d="M 529 84 L 654 84 L 654 250 L 529 250 Z M 529 84 " clip-rule="nonzero"/></clipPath><clipPath id="95f00a79de"><path d="M 104.761719 61.796875 L 737.085938 -49.246094 L 850.074219 594.160156 L 217.75 705.199219 Z M 104.761719 61.796875 " clip-rule="nonzero"/></clipPath><clipPath id="793296d86b"><path d="M 737.238281 -49.269531 L 104.914062 61.769531 L 217.898438 705.175781 L 850.222656 594.132812 Z M 737.238281 -49.269531 " clip-rule="nonzero"/></clipPath><clipPath id="56ba70c7ef"><path d="M 371 14 L 413 14 L 413 215 L 371 215 Z M 371 14 " clip-rule="nonzero"/></clipPath><clipPath id="825d94be49"><path d="M 104.761719 61.796875 L 737.085938 -49.246094 L 850.074219 594.160156 L 217.75 705.199219 Z M 104.761719 61.796875 " clip-rule="nonzero"/></clipPath><clipPath id="87320af433"><path d="M 737.238281 -49.269531 L 104.914062 61.769531 L 217.898438 705.175781 L 850.222656 594.132812 Z M 737.238281 -49.269531 " clip-rule="nonzero"/></clipPath><clipPath id="fa921de215"><path d="M 601 421 L 799 421 L 799 477 L 601 477 Z M 601 421 " clip-rule="nonzero"/></clipPath><clipPath id="78e32391c1"><path d="M 104.761719 61.796875 L 737.085938 -49.246094 L 850.074219 594.160156 L 217.75 705.199219 Z M 104.761719 61.796875 " clip-rule="nonzero"/></clipPath><clipPath id="92d5f172ea"><path d="M 737.238281 -49.269531 L 104.914062 61.769531 L 217.898438 705.175781 L 850.222656 594.132812 Z M 737.238281 -49.269531 " clip-rule="nonzero"/></clipPath><clipPath id="d2b92c2dd8"><path d="M 578 190 L 752 190 L 752 303 L 578 303 Z M 578 190 " clip-rule="nonzero"/></clipPath><clipPath id="5534f54db2"><path d="M 104.761719 61.796875 L 737.085938 -49.246094 L 850.074219 594.160156 L 217.75 705.199219 Z M 104.761719 61.796875 " clip-rule="nonzero"/></clipPath><clipPath id="ed45fac215"><path d="M 737.238281 -49.269531 L 104.914062 61.769531 L 217.898438 705.175781 L 850.222656 594.132812 Z M 737.238281 -49.269531 " clip-rule="nonzero"/></clipPath><clipPath id="dda4fd9854"><path d="M 460 20 L 517 20 L 517 218 L 460 218 Z M 460 20 " clip-rule="nonzero"/></clipPath><clipPath id="857c669a3f"><path d="M 104.761719 61.796875 L 737.085938 -49.246094 L 850.074219 594.160156 L 217.75 705.199219 Z M 104.761719 61.796875 " clip-rule="nonzero"/></clipPath><clipPath id="daf52b7fd3"><path d="M 737.238281 -49.269531 L 104.914062 61.769531 L 217.898438 705.175781 L 850.222656 594.132812 Z M 737.238281 -49.269531 " clip-rule="nonzero"/></clipPath><clipPath id="76114d02b8"><path d="M 229 67 L 342 67 L 342 241 L 229 241 Z M 229 67 " clip-rule="nonzero"/></clipPath><clipPath id="691d931152"><path d="M 104.761719 61.796875 L 737.085938 -49.246094 L 850.074219 594.160156 L 217.75 705.199219 Z M 104.761719 61.796875 " clip-rule="nonzero"/></clipPath><clipPath id="a259efee80"><path d="M 737.238281 -49.269531 L 104.914062 61.769531 L 217.898438 705.175781 L 850.222656 594.132812 Z M 737.238281 -49.269531 " clip-rule="nonzero"/></clipPath><clipPath id="3c2a473677"><path d="M 592 463 L 709 463 L 709 523 L 592 523 Z M 592 463 " clip-rule="nonzero"/></clipPath><clipPath id="cdcb896240"><path d="M 104.761719 61.796875 L 737.085938 -49.246094 L 850.074219 594.160156 L 217.75 705.199219 Z M 104.761719 61.796875 " clip-rule="nonzero"/></clipPath><clipPath id="5fa406494d"><path d="M 737.238281 -49.269531 L 104.914062 61.769531 L 217.898438 705.175781 L 850.222656 594.132812 Z M 737.238281 -49.269531 " clip-rule="nonzero"/></clipPath><clipPath id="cf5602959c"><path d="M 600 286 L 721 286 L 721 335 L 600 335 Z M 600 286 " clip-rule="nonzero"/></clipPath><clipPath id="c9d671f0cc"><path d="M 104.761719 61.796875 L 737.085938 -49.246094 L 850.074219 594.160156 L 217.75 705.199219 Z M 104.761719 61.796875 " clip-rule="nonzero"/></clipPath><clipPath id="a9d867e7a8"><path d="M 737.238281 -49.269531 L 104.914062 61.769531 L 217.898438 705.175781 L 850.222656 594.132812 Z M 737.238281 -49.269531 " clip-rule="nonzero"/></clipPath><clipPath id="a4f962ce91"><path d="M 502 110 L 562 110 L 562 227 L 502 227 Z M 502 110 " clip-rule="nonzero"/></clipPath><clipPath id="c5c468a33f"><path d="M 104.761719 61.796875 L 737.085938 -49.246094 L 850.074219 594.160156 L 217.75 705.199219 Z M 104.761719 61.796875 " clip-rule="nonzero"/></clipPath><clipPath id="0df4532bef"><path d="M 737.238281 -49.269531 L 104.914062 61.769531 L 217.898438 705.175781 L 850.222656 594.132812 Z M 737.238281 -49.269531 " clip-rule="nonzero"/></clipPath><clipPath id="15a835cdce"><path d="M 325 98 L 374 98 L 374 219 L 325 219 Z M 325 98 " clip-rule="nonzero"/></clipPath><clipPath id="9917dafb8e"><path d="M 104.761719 61.796875 L 737.085938 -49.246094 L 850.074219 594.160156 L 217.75 705.199219 Z M 104.761719 61.796875 " clip-rule="nonzero"/></clipPath><clipPath id="7c20cd39d6"><path d="M 737.238281 -49.269531 L 104.914062 61.769531 L 217.898438 705.175781 L 850.222656 594.132812 Z M 737.238281 -49.269531 " clip-rule="nonzero"/></clipPath><clipPath id="db472be07b"><path d="M 611 389 L 739 389 L 739 406 L 611 406 Z M 611 389 " clip-rule="nonzero"/></clipPath><clipPath id="e65f70afc5"><path d="M 104.761719 61.796875 L 737.085938 -49.246094 L 850.074219 594.160156 L 217.75 705.199219 Z M 104.761719 61.796875 " clip-rule="nonzero"/></clipPath><clipPath id="1d2dc5a3b0"><path d="M 737.238281 -49.269531 L 104.914062 61.769531 L 217.898438 705.175781 L 850.222656 594.132812 Z M 737.238281 -49.269531 " clip-rule="nonzero"/></clipPath><clipPath id="7945bd7f91"><path d="M 561 180 L 657 180 L 657 270 L 561 270 Z M 561 180 " clip-rule="nonzero"/></clipPath><clipPath id="cecdf79ecc"><path d="M 104.761719 61.796875 L 737.085938 -49.246094 L 850.074219 594.160156 L 217.75 705.199219 Z M 104.761719 61.796875 " clip-rule="nonzero"/></clipPath><clipPath id="269c48af05"><path d="M 737.238281 -49.269531 L 104.914062 61.769531 L 217.898438 705.175781 L 850.222656 594.132812 Z M 737.238281 -49.269531 " clip-rule="nonzero"/></clipPath><clipPath id="7083d06cdb"><path d="M 429 80 L 446 80 L 446 208 L 429 208 Z M 429 80 " clip-rule="nonzero"/></clipPath><clipPath id="085ba7ebc1"><path d="M 104.761719 61.796875 L 737.085938 -49.246094 L 850.074219 594.160156 L 217.75 705.199219 Z M 104.761719 61.796875 " clip-rule="nonzero"/></clipPath><clipPath id="ffebb5b851"><path d="M 737.238281 -49.269531 L 104.914062 61.769531 L 217.898438 705.175781 L 850.222656 594.132812 Z M 737.238281 -49.269531 " clip-rule="nonzero"/></clipPath><clipPath id="e0e16a5078"><path d="M 219 162 L 309 162 L 309 258 L 219 258 Z M 219 162 " clip-rule="nonzero"/></clipPath><clipPath id="69ebaa8e88"><path d="M 104.761719 61.796875 L 737.085938 -49.246094 L 850.074219 594.160156 L 217.75 705.199219 Z M 104.761719 61.796875 " clip-rule="nonzero"/></clipPath><clipPath id="b5bda32b69"><path d="M 737.238281 -49.269531 L 104.914062 61.769531 L 217.898438 705.175781 L 850.222656 594.132812 Z M 737.238281 -49.269531 " clip-rule="nonzero"/></clipPath><clipPath id="ad2f633a47"><path d="M 15.777344 201.402344 L 632.730469 201.402344 L 632.730469 790.902344 L 15.777344 790.902344 Z M 15.777344 201.402344 " clip-rule="nonzero"/></clipPath></defs><g clip-path="url(#d0053657f5)"><g clip-path="url(#bf26457862)"><g clip-path="url(#771df4bbde)"><path fill="#f6b91c" d="M 304.773438 307.855469 C 305.585938 306.21875 306.625 304.214844 307.945312 301.902344 C 309.296875 299.625 310.886719 296.996094 312.761719 294.109375 C 313.742188 292.699219 314.769531 291.199219 315.878906 289.640625 C 316.152344 289.253906 316.429688 288.855469 316.714844 288.457031 C 317.007812 288.066406 317.316406 287.683594 317.625 287.289062 C 318.242188 286.503906 318.875 285.699219 319.515625 284.878906 C 320.164062 284.054688 320.824219 283.214844 321.496094 282.359375 C 322.21875 281.542969 322.949219 280.710938 323.695312 279.867188 C 324.449219 279.019531 325.214844 278.15625 325.992188 277.273438 C 326.1875 277.054688 326.382812 276.835938 326.582031 276.613281 C 326.785156 276.398438 326.996094 276.191406 327.199219 275.976562 C 327.621094 275.550781 328.042969 275.117188 328.464844 274.683594 C 330.167969 272.953125 331.902344 271.121094 333.859375 269.421875 C 334.820312 268.550781 335.792969 267.664062 336.78125 266.769531 C 337.03125 266.542969 337.277344 266.320312 337.53125 266.09375 C 337.785156 265.875 338.046875 265.664062 338.304688 265.449219 C 338.832031 265.019531 339.355469 264.585938 339.890625 264.152344 C 340.949219 263.28125 342.023438 262.394531 343.128906 261.511719 C 344.242188 260.648438 345.414062 259.835938 346.578125 258.972656 C 347.164062 258.546875 347.753906 258.117188 348.347656 257.6875 C 348.945312 257.261719 349.527344 256.808594 350.15625 256.414062 C 351.394531 255.605469 352.648438 254.78125 353.917969 253.949219 C 364.105469 247.34375 376.183594 241.660156 389.621094 237.445312 C 390.453125 237.152344 391.308594 236.945312 392.160156 236.699219 C 393.019531 236.464844 393.875 236.230469 394.734375 235.992188 C 395.597656 235.757812 396.464844 235.523438 397.332031 235.289062 C 398.203125 235.0625 399.085938 234.886719 399.96875 234.683594 C 401.738281 234.296875 403.515625 233.882812 405.3125 233.515625 C 407.125 233.210938 408.945312 232.902344 410.777344 232.597656 C 412.605469 232.253906 414.464844 232.082031 416.328125 231.847656 C 418.199219 231.644531 420.074219 231.378906 421.972656 231.289062 C 423.871094 231.164062 425.777344 231.039062 427.695312 230.914062 C 429.613281 230.867188 431.542969 230.851562 433.484375 230.820312 C 435.425781 230.757812 437.371094 230.867188 439.324219 230.925781 C 441.285156 230.992188 443.25 231.035156 445.210938 231.242188 C 447.179688 231.417969 449.15625 231.570312 451.136719 231.773438 C 453.105469 232.046875 455.085938 232.320312 457.070312 232.589844 C 464.984375 233.859375 472.921875 235.683594 480.730469 238.210938 C 488.515625 240.792969 496.179688 243.964844 503.578125 247.742188 C 505.402344 248.738281 507.230469 249.734375 509.054688 250.730469 L 510.425781 251.480469 L 511.804688 252.332031 L 514.558594 254.042969 L 517.308594 255.757812 L 517.644531 255.972656 L 517.941406 256.179688 L 522.097656 259.050781 L 523.289062 259.875 L 523.878906 260.289062 C 524.4375 260.6875 524.125 260.464844 524.289062 260.589844 L 524.445312 260.703125 L 524.75 260.945312 C 531.433594 265.921875 537.707031 271.449219 543.527344 277.375 C 544.953125 278.886719 546.371094 280.398438 547.789062 281.90625 C 549.171875 283.453125 550.476562 285.0625 551.8125 286.636719 L 552.808594 287.820312 L 553.308594 288.414062 L 553.777344 289.027344 C 554.402344 289.847656 555.027344 290.667969 555.648438 291.484375 C 556.890625 293.125 558.164062 294.742188 559.285156 296.460938 C 564.039062 303.144531 568.035156 310.257812 571.542969 317.449219 C 571.96875 318.355469 572.398438 319.261719 572.824219 320.164062 C 573.25 321.066406 573.679688 321.964844 574.042969 322.890625 C 574.804688 324.726562 575.558594 326.558594 576.3125 328.382812 C 577.03125 330.21875 577.652344 332.089844 578.3125 333.929688 C 578.625 334.855469 578.980469 335.761719 579.257812 336.699219 C 579.535156 337.632812 579.816406 338.558594 580.09375 339.488281 C 580.375 340.417969 580.652344 341.34375 580.925781 342.269531 C 581.0625 342.730469 581.210938 343.191406 581.328125 343.65625 L 581.671875 345.054688 C 582.125 346.921875 582.578125 348.777344 583.027344 350.625 C 583.414062 352.484375 583.757812 354.34375 584.113281 356.1875 C 584.277344 357.113281 584.484375 358.027344 584.605469 358.953125 C 584.738281 359.878906 584.867188 360.800781 584.996094 361.722656 C 585.125 362.636719 585.253906 363.554688 585.378906 364.46875 L 585.566406 365.835938 L 585.699219 367.210938 C 585.859375 369.035156 586.015625 370.851562 586.171875 372.65625 C 586.269531 373.554688 586.273438 374.460938 586.320312 375.359375 C 586.351562 376.257812 586.386719 377.152344 586.421875 378.042969 C 586.457031 378.933594 586.488281 379.820312 586.515625 380.710938 C 586.539062 381.59375 586.507812 382.480469 586.5 383.359375 C 586.476562 385.117188 586.453125 386.863281 586.429688 388.59375 C 586.320312 390.324219 586.207031 392.039062 586.097656 393.742188 C 586.042969 394.589844 585.984375 395.433594 585.925781 396.28125 C 585.828125 397.121094 585.734375 397.957031 585.640625 398.789062 C 585.445312 400.449219 585.25 402.097656 585.058594 403.734375 C 584.785156 405.359375 584.515625 406.964844 584.25 408.5625 C 584.113281 409.359375 583.976562 410.148438 583.84375 410.933594 C 583.691406 411.71875 583.503906 412.496094 583.335938 413.269531 C 582.992188 414.8125 582.648438 416.34375 582.3125 417.859375 C 582.160156 418.613281 581.929688 419.355469 581.726562 420.097656 C 581.519531 420.835938 581.3125 421.570312 581.105469 422.300781 C 580.902344 423.027344 580.699219 423.753906 580.492188 424.476562 C 580.292969 425.195312 580.097656 425.914062 579.847656 426.617188 C 579.378906 428.019531 578.910156 429.40625 578.449219 430.78125 C 578.21875 431.464844 577.992188 432.148438 577.761719 432.824219 C 577.519531 433.496094 577.25 434.152344 576.996094 434.8125 C 576.488281 436.125 575.957031 437.417969 575.449219 438.6875 C 574.960938 439.96875 574.371094 441.195312 573.816406 442.410156 C 573.257812 443.621094 572.707031 444.8125 572.164062 445.988281 C 572.03125 446.285156 571.894531 446.574219 571.757812 446.867188 C 571.621094 447.15625 571.464844 447.4375 571.320312 447.722656 C 571.023438 448.289062 570.730469 448.851562 570.441406 449.40625 C 569.847656 450.511719 569.269531 451.605469 568.695312 452.675781 C 566.285156 456.902344 563.96875 460.789062 561.535156 464.195312 C 560.945312 465.058594 560.367188 465.894531 559.800781 466.722656 C 559.191406 467.527344 558.589844 468.3125 558.007812 469.082031 C 557.425781 469.839844 556.855469 470.585938 556.296875 471.3125 C 555.730469 472.027344 555.207031 472.761719 554.640625 473.382812 C 553.535156 474.667969 552.488281 475.878906 551.503906 477.023438 C 550.996094 477.601562 550.503906 478.164062 550.03125 478.707031 C 549.542969 479.230469 549.074219 479.734375 548.617188 480.222656 C 546.792969 482.15625 545.179688 483.734375 543.851562 484.988281 C 542.53125 486.253906 541.472656 487.171875 540.769531 487.800781 C 540.0625 488.417969 539.695312 488.738281 539.695312 488.738281 C 539.695312 488.738281 540.800781 487.132812 542.753906 484.082031 C 543.726562 482.558594 544.898438 480.660156 546.234375 478.421875 C 546.558594 477.859375 546.898438 477.273438 547.25 476.667969 C 547.582031 476.058594 547.921875 475.429688 548.273438 474.777344 C 549 473.457031 549.773438 472.054688 550.59375 470.570312 C 551.027344 469.828125 551.355469 469.054688 551.746094 468.273438 C 552.125 467.496094 552.515625 466.695312 552.914062 465.878906 C 553.316406 465.066406 553.726562 464.234375 554.144531 463.390625 C 554.527344 462.511719 554.917969 461.613281 555.3125 460.699219 C 556.941406 457.066406 558.523438 453.074219 560.046875 448.78125 C 563.066406 440.179688 565.660156 430.261719 567.179688 419.34375 C 568.015625 413.898438 568.371094 408.175781 568.632812 402.300781 C 568.636719 400.828125 568.640625 399.34375 568.648438 397.84375 C 568.652344 397.101562 568.660156 396.351562 568.660156 395.597656 C 568.632812 394.847656 568.601562 394.09375 568.570312 393.332031 C 568.507812 391.820312 568.445312 390.296875 568.382812 388.761719 C 568.25 387.234375 568.121094 385.695312 567.984375 384.144531 C 567.914062 383.375 567.871094 382.597656 567.773438 381.820312 C 567.671875 381.046875 567.566406 380.269531 567.460938 379.488281 C 567.363281 378.707031 567.261719 377.925781 567.160156 377.144531 C 567.050781 376.359375 566.980469 375.574219 566.820312 374.792969 C 566.542969 373.226562 566.261719 371.65625 565.980469 370.074219 L 565.773438 368.890625 L 565.507812 367.710938 C 565.335938 366.921875 565.15625 366.132812 564.980469 365.339844 C 564.804688 364.550781 564.628906 363.757812 564.453125 362.964844 C 564.285156 362.167969 564.035156 361.390625 563.832031 360.597656 C 563.390625 359.023438 562.992188 357.433594 562.542969 355.847656 C 562.039062 354.277344 561.53125 352.703125 561.023438 351.117188 L 560.648438 349.929688 C 560.515625 349.535156 560.359375 349.148438 560.21875 348.757812 C 559.929688 347.972656 559.640625 347.191406 559.351562 346.40625 C 559.0625 345.621094 558.773438 344.835938 558.484375 344.046875 C 558.203125 343.257812 557.839844 342.496094 557.519531 341.714844 C 557.191406 340.9375 556.863281 340.164062 556.53125 339.386719 C 556.191406 338.613281 555.902344 337.816406 555.53125 337.054688 C 554.800781 335.527344 554.074219 333.992188 553.339844 332.449219 C 552.988281 331.671875 552.582031 330.921875 552.171875 330.171875 C 551.765625 329.417969 551.363281 328.667969 550.960938 327.910156 C 550.558594 327.152344 550.15625 326.398438 549.753906 325.636719 C 549.316406 324.902344 548.875 324.160156 548.433594 323.421875 C 547.996094 322.683594 547.554688 321.941406 547.113281 321.199219 L 546.457031 320.089844 C 546.226562 319.71875 545.976562 319.367188 545.742188 319.007812 C 544.792969 317.5625 543.84375 316.113281 542.886719 314.664062 C 541.890625 313.246094 540.84375 311.855469 539.828125 310.441406 C 535.636719 304.882812 531.101562 299.515625 526.09375 294.5625 C 525.5 293.917969 524.851562 293.324219 524.203125 292.726562 L 522.273438 290.921875 L 520.339844 289.117188 L 518.324219 287.402344 L 516.308594 285.683594 C 515.640625 285.105469 514.976562 284.527344 514.257812 284.003906 L 510.054688 280.769531 L 509.664062 280.464844 C 509.699219 280.492188 509.613281 280.425781 509.578125 280.402344 L 509.191406 280.132812 L 508.007812 279.304688 L 505.640625 277.652344 L 504.457031 276.824219 L 503.570312 276.203125 C 503.476562 276.140625 503.390625 276.09375 503.296875 276.035156 L 501.148438 274.699219 L 499.007812 273.359375 L 497.9375 272.6875 L 496.789062 272.039062 C 495.253906 271.167969 493.71875 270.300781 492.1875 269.4375 C 485.953125 266.171875 479.542969 263.308594 472.996094 260.921875 C 471.347656 260.371094 469.699219 259.8125 468.054688 259.257812 C 467.238281 258.964844 466.402344 258.742188 465.570312 258.503906 C 464.734375 258.269531 463.902344 258.035156 463.070312 257.800781 C 462.238281 257.5625 461.410156 257.324219 460.578125 257.085938 C 459.742188 256.886719 458.902344 256.691406 458.0625 256.492188 C 457.226562 256.296875 456.390625 256.101562 455.554688 255.902344 L 454.300781 255.605469 L 453.039062 255.371094 C 451.351562 255.050781 449.675781 254.734375 448 254.417969 C 446.316406 254.15625 444.632812 253.941406 442.953125 253.695312 C 441.277344 253.425781 439.59375 253.308594 437.917969 253.136719 C 436.242188 252.988281 434.570312 252.777344 432.898438 252.734375 C 426.214844 252.246094 419.605469 252.460938 413.140625 252.859375 C 411.523438 253 409.917969 253.136719 408.320312 253.273438 C 406.726562 253.476562 405.144531 253.679688 403.566406 253.882812 C 402.78125 253.988281 401.988281 254.066406 401.210938 254.199219 C 400.433594 254.339844 399.660156 254.476562 398.886719 254.617188 C 398.113281 254.75 397.339844 254.886719 396.570312 255.023438 C 395.800781 255.164062 395.023438 255.261719 394.273438 255.449219 C 382.109375 258 370.796875 261.773438 360.832031 266.472656 C 359.582031 267.058594 358.34375 267.640625 357.125 268.214844 C 356.503906 268.492188 355.925781 268.828125 355.328125 269.140625 C 354.742188 269.453125 354.152344 269.765625 353.570312 270.074219 C 352.402344 270.707031 351.230469 271.296875 350.105469 271.941406 C 349 272.609375 347.894531 273.25 346.796875 273.890625 C 346.25 274.214844 345.703125 274.53125 345.164062 274.847656 C 344.894531 275.007812 344.621094 275.160156 344.355469 275.324219 C 344.097656 275.496094 343.839844 275.664062 343.582031 275.832031 C 342.546875 276.511719 341.523438 277.179688 340.515625 277.839844 C 338.460938 279.117188 336.613281 280.554688 334.742188 281.863281 C 327.382812 287.246094 321.371094 292.609375 316.59375 297.261719 C 315.972656 297.820312 315.441406 298.425781 314.882812 298.992188 C 314.335938 299.558594 313.808594 300.113281 313.292969 300.648438 C 312.261719 301.726562 311.261719 302.707031 310.375 303.671875 C 308.617188 305.59375 307.144531 307.269531 305.964844 308.644531 C 303.613281 311.402344 302.398438 312.921875 302.398438 312.921875 C 302.398438 312.921875 302.597656 312.476562 302.984375 311.617188 C 303.375 310.761719 303.949219 309.484375 304.773438 307.855469 " fill-opacity="1" fill-rule="nonzero"/></g></g></g><g clip-path="url(#4872754413)"><g clip-path="url(#fd9129b974)"><g clip-path="url(#91bbd9bac0)"><g clip-path="url(#e21f0b72b9)"><g clip-path="url(#c4cd8c8803)"><path fill="#f6b91c" d="M 282.59375 267.191406 C 283.019531 267.46875 283.496094 267.8125 283.898438 268.144531 C 289.128906 272.535156 289.808594 280.335938 285.417969 285.566406 C 281.023438 290.796875 273.222656 291.480469 267.992188 287.089844 L 123.128906 165.535156 L 282.59375 267.191406 " fill-opacity="1" fill-rule="nonzero"/></g></g></g></g></g><g clip-path="url(#bb08dc5703)"><g clip-path="url(#6ff025ebf5)"><g clip-path="url(#abbc4efdb2)"><g clip-path="url(#a9bb7e8ea6)"><g clip-path="url(#6b34b00a6c)"><path fill="#f6b91c" d="M 572.796875 494.347656 C 577.1875 489.117188 584.988281 488.4375 590.222656 492.824219 L 735.082031 614.378906 L 575.617188 512.722656 C 575.191406 512.449219 574.714844 512.101562 574.316406 511.769531 C 569.085938 507.378906 568.40625 499.578125 572.796875 494.347656 " fill-opacity="1" fill-rule="nonzero"/></g></g></g></g></g><g clip-path="url(#dc65f21e19)"><g clip-path="url(#61f3eb5bbb)"><g clip-path="url(#e82c6061e1)"><path fill="#f6b91c" d="M 617.957031 373.429688 C 611.152344 374.027344 605.152344 368.992188 604.558594 362.191406 C 603.964844 355.386719 609 349.390625 615.804688 348.792969 L 804.222656 332.335938 L 619.550781 373.1875 C 619.054688 373.292969 618.476562 373.386719 617.957031 373.429688 " fill-opacity="1" fill-rule="nonzero"/></g></g></g><g clip-path="url(#d34a1e4af2)"><g clip-path="url(#95f00a79de)"><g clip-path="url(#793296d86b)"><path fill="#f6b91c" d="M 550.96875 244.773438 C 546.574219 250.003906 538.773438 250.6875 533.542969 246.296875 C 528.308594 241.90625 527.628906 234.109375 532.019531 228.878906 L 653.625 84.042969 L 551.921875 243.472656 C 551.644531 243.902344 551.304688 244.375 550.96875 244.773438 " fill-opacity="1" fill-rule="nonzero"/></g></g></g><g clip-path="url(#56ba70c7ef)"><g clip-path="url(#825d94be49)"><g clip-path="url(#87320af433)"><path fill="#f6b91c" d="M 401.347656 214.558594 C 394.542969 215.152344 388.542969 210.121094 387.953125 203.316406 L 371.507812 14.949219 L 412.351562 199.566406 C 412.457031 200.066406 412.550781 200.644531 412.59375 201.164062 C 413.191406 207.96875 408.152344 213.964844 401.347656 214.558594 " fill-opacity="1" fill-rule="nonzero"/></g></g></g><g clip-path="url(#fa921de215)"><g clip-path="url(#78e32391c1)"><g clip-path="url(#92d5f172ea)"><path fill="#f6b91c" d="M 610.390625 445.351562 C 603.859375 443.351562 600.183594 436.441406 602.179688 429.910156 C 604.179688 423.378906 611.097656 419.703125 617.628906 421.699219 L 798.492188 476.996094 L 611.960938 445.71875 C 611.460938 445.632812 610.890625 445.503906 610.390625 445.351562 " fill-opacity="1" fill-rule="nonzero"/></g></g></g><g clip-path="url(#d2b92c2dd8)"><g clip-path="url(#5534f54db2)"><g clip-path="url(#ed45fac215)"><path fill="#f6b91c" d="M 596.488281 300.972656 C 590.453125 304.179688 582.964844 301.886719 579.761719 295.859375 C 576.554688 289.824219 578.84375 282.339844 584.875 279.132812 L 751.890625 190.375 L 597.859375 300.121094 C 597.445312 300.414062 596.949219 300.726562 596.488281 300.972656 " fill-opacity="1" fill-rule="nonzero"/></g></g></g><g clip-path="url(#dda4fd9854)"><g clip-path="url(#857c669a3f)"><g clip-path="url(#daf52b7fd3)"><path fill="#f6b91c" d="M 484.535156 208.71875 C 482.535156 215.246094 475.621094 218.925781 469.085938 216.925781 C 462.554688 214.929688 458.878906 208.015625 460.878906 201.488281 L 516.207031 20.667969 L 484.90625 207.148438 C 484.816406 207.648438 484.6875 208.21875 484.535156 208.71875 " fill-opacity="1" fill-rule="nonzero"/></g></g></g><g clip-path="url(#76114d02b8)"><g clip-path="url(#691d931152)"><g clip-path="url(#a259efee80)"><path fill="#f6b91c" d="M 334.996094 239.355469 C 328.964844 242.5625 321.472656 240.269531 318.269531 234.242188 L 229.5 67.285156 L 339.261719 221.261719 C 339.554688 221.675781 339.867188 222.171875 340.113281 222.632812 C 343.320312 228.664062 341.027344 236.148438 334.996094 239.355469 " fill-opacity="1" fill-rule="nonzero"/></g></g></g><g clip-path="url(#3c2a473677)"><g clip-path="url(#cdcb896240)"><g clip-path="url(#5fa406494d)"><path fill="#f6b91c" d="M 598.003906 478.996094 C 597.691406 478.867188 597.335938 478.703125 597.03125 478.53125 C 593.175781 476.375 591.800781 471.496094 593.960938 467.640625 C 596.121094 463.785156 601 462.410156 604.859375 464.570312 L 708.699219 522.714844 L 598.003906 478.996094 " fill-opacity="1" fill-rule="nonzero"/></g></g></g><g clip-path="url(#cf5602959c)"><g clip-path="url(#c9d671f0cc)"><g clip-path="url(#a9d867e7a8)"><path fill="#f6b91c" d="M 606.167969 318.472656 L 720.703125 286.1875 L 611.523438 333.515625 C 611.210938 333.648438 610.847656 333.78125 610.511719 333.875 C 606.257812 335.074219 601.835938 332.597656 600.636719 328.34375 C 599.433594 324.089844 601.910156 319.671875 606.167969 318.472656 " fill-opacity="1" fill-rule="nonzero"/></g></g></g><g clip-path="url(#a4f962ce91)"><g clip-path="url(#c5c468a33f)"><g clip-path="url(#0df4532bef)"><path fill="#f6b91c" d="M 517.726562 222.070312 C 515.566406 225.925781 510.683594 227.300781 506.828125 225.140625 C 502.972656 222.980469 501.597656 218.105469 503.757812 214.246094 L 561.933594 110.433594 L 518.1875 221.101562 C 518.058594 221.414062 517.898438 221.765625 517.726562 222.070312 " fill-opacity="1" fill-rule="nonzero"/></g></g></g><g clip-path="url(#15a835cdce)"><g clip-path="url(#9917dafb8e)"><g clip-path="url(#7c20cd39d6)"><path fill="#f6b91c" d="M 367.492188 218.484375 C 363.242188 219.683594 358.816406 217.207031 357.617188 212.953125 L 325.335938 98.453125 L 372.667969 207.597656 C 372.800781 207.910156 372.933594 208.273438 373.027344 208.613281 C 374.226562 212.863281 371.75 217.285156 367.492188 218.484375 " fill-opacity="1" fill-rule="nonzero"/></g></g></g><g clip-path="url(#db472be07b)"><g clip-path="url(#e65f70afc5)"><g clip-path="url(#1d2dc5a3b0)"><path fill="#f6b91c" d="M 620.054688 389.976562 L 738.34375 402.929688 L 619.382812 405.929688 C 619.046875 405.9375 618.65625 405.925781 618.308594 405.886719 C 613.914062 405.402344 610.742188 401.453125 611.222656 397.058594 C 611.707031 392.667969 615.660156 389.496094 620.054688 389.976562 " fill-opacity="1" fill-rule="nonzero"/></g></g></g><g clip-path="url(#7945bd7f91)"><g clip-path="url(#cecdf79ecc)"><g clip-path="url(#269c48af05)"><path fill="#f6b91c" d="M 562.921875 266.238281 C 560.152344 262.792969 560.707031 257.753906 564.152344 254.988281 L 656.988281 180.507812 L 574.960938 266.742188 C 574.730469 266.988281 574.445312 267.253906 574.171875 267.46875 C 570.726562 270.238281 565.6875 269.6875 562.921875 266.238281 " fill-opacity="1" fill-rule="nonzero"/></g></g></g><g clip-path="url(#7083d06cdb)"><g clip-path="url(#085ba7ebc1)"><g clip-path="url(#ffebb5b851)"><path fill="#f6b91c" d="M 445.058594 200.804688 C 444.578125 205.199219 440.625 208.371094 436.226562 207.890625 C 431.835938 207.40625 428.664062 203.457031 429.144531 199.0625 L 442.117188 80.804688 L 445.105469 199.734375 C 445.109375 200.070312 445.097656 200.460938 445.058594 200.804688 " fill-opacity="1" fill-rule="nonzero"/></g></g></g><g clip-path="url(#e0e16a5078)"><g clip-path="url(#69ebaa8e88)"><g clip-path="url(#b5bda32b69)"><path fill="#f6b91c" d="M 306.601562 244.945312 C 309.367188 248.390625 308.8125 253.425781 305.363281 256.195312 C 301.917969 258.960938 296.878906 258.40625 294.113281 254.960938 L 219.621094 162.160156 L 305.871094 244.152344 C 306.117188 244.386719 306.382812 244.671875 306.601562 244.945312 " fill-opacity="1" fill-rule="nonzero"/></g></g></g><g clip-path="url(#ad2f633a47)"><path fill="#000000" d="M 26.691406 302.269531 L 25.785156 297.761719 C 23.980469 292.339844 23.074219 286.917969 23.074219 286.917969 C 23.074219 281.5 19.464844 274.273438 19.464844 274.273438 C 14.949219 270.660156 15.855469 266.144531 15.855469 266.144531 C 19.464844 261.628906 23.980469 252.59375 23.980469 252.59375 L 17.660156 248.078125 C 19.464844 245.367188 21.269531 239.953125 21.269531 239.953125 C 23.074219 236.335938 23.074219 236.335938 23.074219 236.335938 C 23.074219 236.335938 27.589844 241.757812 23.074219 236.335938 C 18.558594 230.921875 18.558594 225.5 18.558594 225.5 C 16.753906 220.984375 15.855469 214.660156 15.855469 214.660156 C 19.464844 212.855469 23.980469 213.757812 23.980469 213.757812 C 27.589844 212.855469 31.207031 202.019531 31.207031 202.019531 C 34.816406 200.207031 38.429688 202.917969 38.429688 202.917969 C 41.136719 207.433594 46.558594 220.082031 46.558594 220.082031 L 51.074219 225.5 L 56.496094 230.015625 C 61.914062 233.632812 67.332031 235.4375 67.332031 235.4375 L 73.65625 238.148438 C 79.074219 239.953125 87.203125 239.953125 87.203125 239.953125 L 97.140625 231.820312 L 110.6875 220.984375 L 123.328125 212.601562 L 137.78125 212.601562 L 143.203125 219.175781 C 142.296875 222.789062 139.585938 227.308594 139.585938 227.308594 C 140.492188 231.820312 140.492188 231.820312 140.492188 231.820312 L 141.390625 238.148438 L 134.167969 240.859375 L 135.976562 246.273438 L 140.492188 253.5 C 143.203125 258.015625 148.617188 260.726562 148.617188 260.726562 L 154.039062 262.53125 C 155.84375 265.242188 157.652344 283.308594 157.652344 283.308594 L 165.78125 296.855469 L 174.8125 300.464844 L 182.035156 304.082031 C 187.457031 304.082031 191.070312 307.691406 191.070312 307.691406 L 198.292969 314.917969 L 202.808594 321.242188 L 207.324219 326.660156 L 243.457031 337.5 L 250.679688 338.398438 L 262.421875 335.695312 L 272.355469 332.984375 L 280.484375 333.882812 L 288.617188 331.179688 L 294.9375 331.179688 C 301.257812 333.882812 305.773438 333.882812 305.773438 333.882812 C 311.195312 330.273438 313.90625 324.851562 313.90625 324.851562 L 313.90625 317.625 L 311.195312 311.304688 L 323.835938 310.402344 L 334.679688 306.789062 L 339.195312 298.660156 L 341 291.433594 L 346.417969 290.535156 L 359.0625 280.597656 L 368.996094 280.597656 L 384.351562 281.496094 L 387.964844 276.082031 L 397.902344 275.175781 C 400.613281 273.371094 406.027344 275.175781 406.027344 275.175781 C 409.644531 279.691406 415.058594 274.273438 415.058594 274.273438 L 419.574219 280.597656 L 420.480469 287.824219 L 434.027344 290.535156 L 442.160156 294.144531 C 446.667969 295.042969 450.285156 297.753906 450.285156 297.753906 C 457.511719 299.566406 461.121094 297.753906 461.121094 297.753906 C 467.445312 299.566406 473.765625 300.464844 473.765625 300.464844 C 477.382812 301.371094 485.511719 312.203125 485.511719 312.203125 L 489.125 318.53125 L 499.058594 317.625 L 512.609375 331.171875 L 517.125 337.492188 L 537.890625 336.59375 L 542.414062 347.429688 L 540.601562 357.367188 L 540.601562 364.59375 L 547.828125 372.722656 C 547.828125 372.722656 546.929688 374.527344 546.023438 377.238281 C 545.125 379.949219 542.414062 388.074219 542.414062 388.074219 L 541.507812 395.300781 L 541.507812 403.429688 L 540.601562 410.65625 C 536.085938 415.171875 531.570312 417.882812 531.570312 417.882812 L 535.1875 424.203125 C 532.476562 427.820312 527.054688 430.53125 527.054688 430.53125 L 524.351562 442.269531 L 526.15625 448.589844 L 527.054688 454.914062 L 535.1875 454.914062 L 538.796875 460.332031 L 533.382812 472.074219 C 529.765625 476.589844 541.507812 516.335938 541.507812 516.335938 L 537.890625 530.789062 L 540.601562 539.820312 L 571.3125 541.625 L 574.019531 559.691406 L 570.410156 569.628906 C 570.410156 569.628906 546.929688 597.625 546.929688 600.335938 C 546.929688 603.042969 552.34375 613.882812 552.34375 613.882812 L 564.988281 626.53125 L 569.507812 639.171875 L 573.117188 645.496094 L 581.246094 650.914062 L 587.566406 654.527344 L 594.796875 656.332031 L 602.925781 661.753906 L 609.246094 663.558594 L 612.855469 661.753906 L 616.472656 701.496094 L 628.214844 701.496094 L 632.730469 706.011719 L 630.019531 717.75 L 628.214844 723.171875 L 613.761719 725.882812 L 601.121094 728.59375 L 599.308594 738.523438 C 595.699219 742.140625 589.378906 741.234375 589.378906 741.234375 C 584.859375 744.851562 584.859375 752.074219 584.859375 752.074219 L 584.859375 757.496094 L 583.957031 764.722656 L 578.539062 767.433594 L 578.539062 784.597656 L 570.410156 790.917969 L 563.1875 790.011719 L 556.859375 787.300781 C 547.828125 781.878906 538.804688 778.269531 538.804688 778.269531 L 525.25 779.175781 L 514.414062 782.785156 L 505.382812 784.597656 L 498.15625 782.785156 L 490.027344 783.691406 L 483.707031 781.878906 C 483.707031 781.878906 479.191406 782.785156 474.675781 780.980469 C 470.15625 779.175781 466.542969 776.464844 466.542969 776.464844 L 456.605469 773.753906 L 448.480469 772.855469 C 448.480469 772.855469 440.355469 771.949219 437.644531 769.238281 C 434.933594 766.527344 430.417969 764.722656 430.417969 764.722656 L 423.191406 760.207031 L 414.160156 736.726562 L 409.644531 723.175781 L 401.515625 712.339844 L 389.773438 708.722656 L 381.648438 714.144531 L 376.226562 718.398438 C 376.226562 718.398438 368.09375 716.339844 365.390625 718.398438 C 362.679688 720.464844 360.875 724.984375 360.875 724.984375 C 352.742188 731.304688 342.8125 733.109375 342.8125 733.109375 C 336.484375 737.632812 331.96875 738.53125 331.96875 738.53125 L 324.742188 737.632812 L 316.617188 732.210938 L 308.488281 729.5 L 294.035156 731.304688 L 286.808594 722.273438 L 282.292969 718.398438 L 275.066406 713.238281 L 267.839844 708.722656 L 261.519531 706.011719 L 256.105469 696.980469 C 249.777344 693.371094 239.847656 688.855469 239.847656 688.855469 L 232.621094 686.144531 L 225.394531 685.238281 L 216.363281 678.917969 L 210.039062 668.984375 C 210.039062 668.984375 204.621094 655.4375 204.621094 651.820312 C 204.621094 648.210938 202.816406 643.695312 202.816406 643.695312 C 198.296875 637.367188 198.296875 637.367188 198.296875 637.367188 C 198.296875 637.367188 201.910156 642.789062 198.296875 637.367188 C 194.6875 631.953125 191.976562 627.4375 191.976562 627.4375 L 190.171875 621.113281 L 187.460938 612.980469 C 183.847656 606.660156 183.847656 606.660156 183.847656 606.660156 L 177.523438 596.722656 C 172.109375 589.496094 172.109375 589.496094 172.109375 589.496094 C 172.109375 589.496094 180.234375 584.980469 172.109375 589.496094 C 163.976562 594.011719 160.367188 599.433594 157.65625 595.816406 C 154.945312 592.207031 150.429688 592.207031 150.429688 592.207031 L 147.71875 586.792969 L 145.914062 577.757812 C 141.398438 576.855469 143.203125 584.984375 143.203125 584.984375 C 139.59375 589.503906 135.980469 583.179688 135.980469 583.179688 L 135.078125 578.660156 L 135.078125 587.695312 C 129.65625 593.113281 125.140625 594.019531 125.140625 594.019531 C 118.820312 593.113281 114.304688 583.179688 114.304688 583.179688 L 108.882812 573.242188 L 107.980469 569.628906 L 107.078125 555.179688 L 96.238281 548.859375 L 98.949219 531.695312 L 104.367188 519.949219 L 98.949219 506.402344 C 93.535156 501.886719 92.628906 495.566406 92.628906 495.566406 L 84.496094 491.953125 L 77.277344 488.339844 L 68.246094 479.308594 L 61.019531 471.179688 C 54.691406 469.375 54.691406 469.375 54.691406 469.375 C 54.691406 469.375 60.113281 477.5 54.691406 469.375 C 49.277344 461.242188 52.886719 457.632812 52.886719 457.632812 L 49.277344 450.40625 L 44.761719 444.984375 C 39.339844 439.566406 39.339844 439.566406 39.339844 439.566406 L 35.726562 431.4375 L 34.824219 424.210938 L 37.535156 417.886719 L 34.824219 409.761719 L 38.4375 405.246094 C 42.953125 405.246094 42.953125 405.246094 42.953125 405.246094 L 43.855469 398.019531 L 52.886719 388.988281 C 57.402344 386.277344 57.402344 386.277344 57.402344 386.277344 L 61.019531 379.050781 L 61.019531 371.824219 L 59.214844 366.40625 C 59.214844 363.695312 67.339844 358.273438 67.339844 358.273438 C 62.824219 352.859375 55.597656 352.859375 55.597656 352.859375 C 51.988281 352.859375 51.988281 352.859375 51.988281 352.859375 L 43.855469 348.34375 C 39.34375 344.726562 39.34375 344.726562 39.34375 344.726562 L 35.726562 335.695312 L 35.726562 329.371094 L 31.210938 324.855469 C 28.5 318.535156 29.40625 314.917969 29.40625 314.917969 L 28.5 309.503906 C 25.792969 304.988281 26.691406 302.269531 26.691406 302.269531 " fill-opacity="1" fill-rule="nonzero"/></g><path fill="#000000" d="M 362.351562 735.027344 C 361.441406 729.84375 373.523438 719.308594 377.054688 721.359375 C 383.011719 724.808594 381.5 731.179688 376.128906 733.292969 C 374.082031 734.101562 365.015625 738.328125 363.117188 736.492188 C 362.695312 736.078125 362.449219 735.585938 362.351562 735.027344 " fill-opacity="1" fill-rule="nonzero"/></svg>